<mxfile host="app.diagrams.net" modified="2023-02-07T14:37:07.997Z" agent="5.0 (Windows NT 10.0; Win64; x64) AppleWebKit/537.36 (KHTML, like Gecko) Chrome/109.0.0.0 Safari/537.36" etag="t2nrzKmW1M38Ff5pvw3a" version="20.8.17" type="github">
  <diagram id="C5RBs43oDa-KdzZeNtuy" name="Page-1">
    <mxGraphModel dx="808" dy="1645" grid="1" gridSize="10" guides="1" tooltips="1" connect="1" arrows="1" fold="1" page="1" pageScale="1" pageWidth="827" pageHeight="1169" math="0" shadow="0">
      <root>
        <mxCell id="WIyWlLk6GJQsqaUBKTNV-0" />
        <mxCell id="WIyWlLk6GJQsqaUBKTNV-1" parent="WIyWlLk6GJQsqaUBKTNV-0" />
        <mxCell id="IDVPyDn8LvfzWvbEVBhB-1" value="Signalement" style="swimlane;fontStyle=0;align=center;verticalAlign=top;childLayout=stackLayout;horizontal=1;startSize=26;horizontalStack=0;resizeParent=1;resizeLast=0;collapsible=1;marginBottom=0;rounded=0;shadow=0;strokeWidth=1;" parent="WIyWlLk6GJQsqaUBKTNV-1" vertex="1">
          <mxGeometry x="960" y="-18" width="160" height="295.5" as="geometry">
            <mxRectangle x="550" y="140" width="160" height="26" as="alternateBounds" />
          </mxGeometry>
        </mxCell>
        <mxCell id="n6stJM4-8zsGEMDc5PRE-1" value="id_signalement" style="text;align=left;verticalAlign=top;spacingLeft=4;spacingRight=4;overflow=hidden;rotatable=0;points=[[0,0.5],[1,0.5]];portConstraint=eastwest;" parent="IDVPyDn8LvfzWvbEVBhB-1" vertex="1">
          <mxGeometry y="26" width="160" height="26" as="geometry" />
        </mxCell>
        <mxCell id="IDVPyDn8LvfzWvbEVBhB-5" value="problème : EnumEtat" style="text;align=left;verticalAlign=top;spacingLeft=4;spacingRight=4;overflow=hidden;rotatable=0;points=[[0,0.5],[1,0.5]];portConstraint=eastwest;rounded=0;shadow=0;html=0;" parent="IDVPyDn8LvfzWvbEVBhB-1" vertex="1">
          <mxGeometry y="52" width="160" height="26" as="geometry" />
        </mxCell>
        <mxCell id="IDVPyDn8LvfzWvbEVBhB-6" value="description_problème (N)" style="text;align=left;verticalAlign=top;spacingLeft=4;spacingRight=4;overflow=hidden;rotatable=0;points=[[0,0.5],[1,0.5]];portConstraint=eastwest;rounded=0;shadow=0;html=0;" parent="IDVPyDn8LvfzWvbEVBhB-1" vertex="1">
          <mxGeometry y="78" width="160" height="26" as="geometry" />
        </mxCell>
        <mxCell id="IDVPyDn8LvfzWvbEVBhB-7" value="niveau_urgence" style="text;align=left;verticalAlign=top;spacingLeft=4;spacingRight=4;overflow=hidden;rotatable=0;points=[[0,0.5],[1,0.5]];portConstraint=eastwest;" parent="IDVPyDn8LvfzWvbEVBhB-1" vertex="1">
          <mxGeometry y="104" width="160" height="26" as="geometry" />
        </mxCell>
        <mxCell id="IDVPyDn8LvfzWvbEVBhB-8" value="date_signalement" style="text;align=left;verticalAlign=top;spacingLeft=4;spacingRight=4;overflow=hidden;rotatable=0;points=[[0,0.5],[1,0.5]];portConstraint=eastwest;" parent="IDVPyDn8LvfzWvbEVBhB-1" vertex="1">
          <mxGeometry y="130" width="160" height="26" as="geometry" />
        </mxCell>
        <mxCell id="IDVPyDn8LvfzWvbEVBhB-9" value="compteur_signalement" style="text;align=left;verticalAlign=top;spacingLeft=4;spacingRight=4;overflow=hidden;rotatable=0;points=[[0,0.5],[1,0.5]];portConstraint=eastwest;" parent="IDVPyDn8LvfzWvbEVBhB-1" vertex="1">
          <mxGeometry y="156" width="160" height="26" as="geometry" />
        </mxCell>
        <mxCell id="IDVPyDn8LvfzWvbEVBhB-10" value="état : EnumEtat" style="text;align=left;verticalAlign=top;spacingLeft=4;spacingRight=4;overflow=hidden;rotatable=0;points=[[0,0.5],[1,0.5]];portConstraint=eastwest;" parent="IDVPyDn8LvfzWvbEVBhB-1" vertex="1">
          <mxGeometry y="182" width="160" height="26" as="geometry" />
        </mxCell>
        <mxCell id="IDVPyDn8LvfzWvbEVBhB-11" value="date_modification (N)" style="text;align=left;verticalAlign=top;spacingLeft=4;spacingRight=4;overflow=hidden;rotatable=0;points=[[0,0.5],[1,0.5]];portConstraint=eastwest;" parent="IDVPyDn8LvfzWvbEVBhB-1" vertex="1">
          <mxGeometry y="208" width="160" height="26" as="geometry" />
        </mxCell>
        <mxCell id="n6stJM4-8zsGEMDc5PRE-3" value="description_réso (N)" style="text;align=left;verticalAlign=top;spacingLeft=4;spacingRight=4;overflow=hidden;rotatable=0;points=[[0,0.5],[1,0.5]];portConstraint=eastwest;" parent="IDVPyDn8LvfzWvbEVBhB-1" vertex="1">
          <mxGeometry y="234" width="160" height="26" as="geometry" />
        </mxCell>
        <mxCell id="n6stJM4-8zsGEMDc5PRE-4" value="date_réso (N)" style="text;align=left;verticalAlign=top;spacingLeft=4;spacingRight=4;overflow=hidden;rotatable=0;points=[[0,0.5],[1,0.5]];portConstraint=eastwest;" parent="IDVPyDn8LvfzWvbEVBhB-1" vertex="1">
          <mxGeometry y="260" width="160" height="26" as="geometry" />
        </mxCell>
        <mxCell id="IDVPyDn8LvfzWvbEVBhB-12" value="Habitant" style="swimlane;fontStyle=0;align=center;verticalAlign=top;childLayout=stackLayout;horizontal=1;startSize=26;horizontalStack=0;resizeParent=1;resizeLast=0;collapsible=1;marginBottom=0;rounded=0;shadow=0;strokeWidth=1;" parent="WIyWlLk6GJQsqaUBKTNV-1" vertex="1">
          <mxGeometry x="1260" y="25.75" width="160" height="208" as="geometry">
            <mxRectangle x="340" y="380" width="170" height="26" as="alternateBounds" />
          </mxGeometry>
        </mxCell>
        <mxCell id="x_2vdBXNKLHQgMYw-naI-0" value="id_habitant" style="text;align=left;verticalAlign=top;spacingLeft=4;spacingRight=4;overflow=hidden;rotatable=0;points=[[0,0.5],[1,0.5]];portConstraint=eastwest;" parent="IDVPyDn8LvfzWvbEVBhB-12" vertex="1">
          <mxGeometry y="26" width="160" height="26" as="geometry" />
        </mxCell>
        <mxCell id="IDVPyDn8LvfzWvbEVBhB-13" value="nom_habitant" style="text;align=left;verticalAlign=top;spacingLeft=4;spacingRight=4;overflow=hidden;rotatable=0;points=[[0,0.5],[1,0.5]];portConstraint=eastwest;" parent="IDVPyDn8LvfzWvbEVBhB-12" vertex="1">
          <mxGeometry y="52" width="160" height="26" as="geometry" />
        </mxCell>
        <mxCell id="IDVPyDn8LvfzWvbEVBhB-14" value="prénom_habitant" style="text;align=left;verticalAlign=top;spacingLeft=4;spacingRight=4;overflow=hidden;rotatable=0;points=[[0,0.5],[1,0.5]];portConstraint=eastwest;" parent="IDVPyDn8LvfzWvbEVBhB-12" vertex="1">
          <mxGeometry y="78" width="160" height="26" as="geometry" />
        </mxCell>
        <mxCell id="IDVPyDn8LvfzWvbEVBhB-15" value="adresse" style="text;align=left;verticalAlign=top;spacingLeft=4;spacingRight=4;overflow=hidden;rotatable=0;points=[[0,0.5],[1,0.5]];portConstraint=eastwest;" parent="IDVPyDn8LvfzWvbEVBhB-12" vertex="1">
          <mxGeometry y="104" width="160" height="26" as="geometry" />
        </mxCell>
        <mxCell id="IDVPyDn8LvfzWvbEVBhB-16" value="numéro_portable" style="text;align=left;verticalAlign=top;spacingLeft=4;spacingRight=4;overflow=hidden;rotatable=0;points=[[0,0.5],[1,0.5]];portConstraint=eastwest;" parent="IDVPyDn8LvfzWvbEVBhB-12" vertex="1">
          <mxGeometry y="130" width="160" height="26" as="geometry" />
        </mxCell>
        <mxCell id="IDVPyDn8LvfzWvbEVBhB-17" value="numéro_fixe (N)" style="text;align=left;verticalAlign=top;spacingLeft=4;spacingRight=4;overflow=hidden;rotatable=0;points=[[0,0.5],[1,0.5]];portConstraint=eastwest;" parent="IDVPyDn8LvfzWvbEVBhB-12" vertex="1">
          <mxGeometry y="156" width="160" height="26" as="geometry" />
        </mxCell>
        <mxCell id="IDVPyDn8LvfzWvbEVBhB-18" value="mail (N)" style="text;align=left;verticalAlign=top;spacingLeft=4;spacingRight=4;overflow=hidden;rotatable=0;points=[[0,0.5],[1,0.5]];portConstraint=eastwest;" parent="IDVPyDn8LvfzWvbEVBhB-12" vertex="1">
          <mxGeometry y="182" width="160" height="26" as="geometry" />
        </mxCell>
        <mxCell id="IDVPyDn8LvfzWvbEVBhB-20" value="Eclairage publique" style="swimlane;fontStyle=0;align=center;verticalAlign=top;childLayout=stackLayout;horizontal=1;startSize=26;horizontalStack=0;resizeParent=1;resizeLast=0;collapsible=1;marginBottom=0;rounded=0;shadow=0;strokeWidth=1;" parent="WIyWlLk6GJQsqaUBKTNV-1" vertex="1">
          <mxGeometry x="1240" y="395" width="180" height="130" as="geometry">
            <mxRectangle x="550" y="140" width="160" height="26" as="alternateBounds" />
          </mxGeometry>
        </mxCell>
        <mxCell id="IDVPyDn8LvfzWvbEVBhB-21" value="id_éclairage" style="text;align=left;verticalAlign=top;spacingLeft=4;spacingRight=4;overflow=hidden;rotatable=0;points=[[0,0.5],[1,0.5]];portConstraint=eastwest;" parent="IDVPyDn8LvfzWvbEVBhB-20" vertex="1">
          <mxGeometry y="26" width="180" height="26" as="geometry" />
        </mxCell>
        <mxCell id="n6stJM4-8zsGEMDc5PRE-10" value="date_début" style="text;align=left;verticalAlign=top;spacingLeft=4;spacingRight=4;overflow=hidden;rotatable=0;points=[[0,0.5],[1,0.5]];portConstraint=eastwest;rounded=0;shadow=0;html=0;" parent="IDVPyDn8LvfzWvbEVBhB-20" vertex="1">
          <mxGeometry y="52" width="180" height="26" as="geometry" />
        </mxCell>
        <mxCell id="vcI3NXsceXAcZQmZiB-R-8" value="date_fin" style="text;align=left;verticalAlign=top;spacingLeft=4;spacingRight=4;overflow=hidden;rotatable=0;points=[[0,0.5],[1,0.5]];portConstraint=eastwest;rounded=0;shadow=0;html=0;" parent="IDVPyDn8LvfzWvbEVBhB-20" vertex="1">
          <mxGeometry y="78" width="180" height="26" as="geometry" />
        </mxCell>
        <mxCell id="IDVPyDn8LvfzWvbEVBhB-23" value="" style="endArrow=none;html=1;rounded=0;" parent="WIyWlLk6GJQsqaUBKTNV-1" source="IDVPyDn8LvfzWvbEVBhB-1" target="IDVPyDn8LvfzWvbEVBhB-12" edge="1">
          <mxGeometry width="50" height="50" relative="1" as="geometry">
            <mxPoint x="780" y="152" as="sourcePoint" />
            <mxPoint x="830" y="102" as="targetPoint" />
          </mxGeometry>
        </mxCell>
        <mxCell id="IDVPyDn8LvfzWvbEVBhB-24" value="1" style="edgeLabel;html=1;align=center;verticalAlign=middle;resizable=0;points=[];" parent="IDVPyDn8LvfzWvbEVBhB-23" vertex="1" connectable="0">
          <mxGeometry x="0.7612" y="1" relative="1" as="geometry">
            <mxPoint x="-119" y="-7" as="offset" />
          </mxGeometry>
        </mxCell>
        <mxCell id="IDVPyDn8LvfzWvbEVBhB-25" value="0..*" style="edgeLabel;html=1;align=center;verticalAlign=middle;resizable=0;points=[];" parent="IDVPyDn8LvfzWvbEVBhB-23" vertex="1" connectable="0">
          <mxGeometry x="0.8633" relative="1" as="geometry">
            <mxPoint x="-2" y="-8" as="offset" />
          </mxGeometry>
        </mxCell>
        <mxCell id="IDVPyDn8LvfzWvbEVBhB-26" value="a signalé" style="edgeLabel;html=1;align=center;verticalAlign=middle;resizable=0;points=[];" parent="IDVPyDn8LvfzWvbEVBhB-23" vertex="1" connectable="0">
          <mxGeometry x="0.1184" relative="1" as="geometry">
            <mxPoint x="-8" y="-8" as="offset" />
          </mxGeometry>
        </mxCell>
        <mxCell id="IDVPyDn8LvfzWvbEVBhB-27" value="" style="endArrow=none;html=1;rounded=0;" parent="WIyWlLk6GJQsqaUBKTNV-1" source="IDVPyDn8LvfzWvbEVBhB-31" target="IDVPyDn8LvfzWvbEVBhB-1" edge="1">
          <mxGeometry width="50" height="50" relative="1" as="geometry">
            <mxPoint x="810" y="129.75" as="sourcePoint" />
            <mxPoint x="870" y="261.9999999999999" as="targetPoint" />
          </mxGeometry>
        </mxCell>
        <mxCell id="IDVPyDn8LvfzWvbEVBhB-28" value="0..1" style="edgeLabel;html=1;align=center;verticalAlign=middle;resizable=0;points=[];" parent="IDVPyDn8LvfzWvbEVBhB-27" vertex="1" connectable="0">
          <mxGeometry x="0.7612" y="1" relative="1" as="geometry">
            <mxPoint x="-117" y="-8" as="offset" />
          </mxGeometry>
        </mxCell>
        <mxCell id="IDVPyDn8LvfzWvbEVBhB-29" value="0..*" style="edgeLabel;html=1;align=center;verticalAlign=middle;resizable=0;points=[];" parent="IDVPyDn8LvfzWvbEVBhB-27" vertex="1" connectable="0">
          <mxGeometry x="0.8633" relative="1" as="geometry">
            <mxPoint x="-2" y="-9" as="offset" />
          </mxGeometry>
        </mxCell>
        <mxCell id="IDVPyDn8LvfzWvbEVBhB-30" value="a modifié" style="edgeLabel;html=1;align=center;verticalAlign=middle;resizable=0;points=[];" parent="IDVPyDn8LvfzWvbEVBhB-27" vertex="1" connectable="0">
          <mxGeometry x="0.1184" relative="1" as="geometry">
            <mxPoint x="-8" y="-8" as="offset" />
          </mxGeometry>
        </mxCell>
        <mxCell id="IDVPyDn8LvfzWvbEVBhB-31" value="Agent" style="swimlane;fontStyle=0;align=center;verticalAlign=top;childLayout=stackLayout;horizontal=1;startSize=26;horizontalStack=0;resizeParent=1;resizeLast=0;collapsible=1;marginBottom=0;rounded=0;shadow=0;strokeWidth=1;" parent="WIyWlLk6GJQsqaUBKTNV-1" vertex="1">
          <mxGeometry x="630" y="59.629999999999995" width="160" height="140.25" as="geometry">
            <mxRectangle x="550" y="140" width="160" height="26" as="alternateBounds" />
          </mxGeometry>
        </mxCell>
        <mxCell id="IDVPyDn8LvfzWvbEVBhB-32" value="id_agent" style="text;align=left;verticalAlign=top;spacingLeft=4;spacingRight=4;overflow=hidden;rotatable=0;points=[[0,0.5],[1,0.5]];portConstraint=eastwest;" parent="IDVPyDn8LvfzWvbEVBhB-31" vertex="1">
          <mxGeometry y="26" width="160" height="26" as="geometry" />
        </mxCell>
        <mxCell id="IDVPyDn8LvfzWvbEVBhB-33" value="nom_agent" style="text;align=left;verticalAlign=top;spacingLeft=4;spacingRight=4;overflow=hidden;rotatable=0;points=[[0,0.5],[1,0.5]];portConstraint=eastwest;" parent="IDVPyDn8LvfzWvbEVBhB-31" vertex="1">
          <mxGeometry y="52" width="160" height="26" as="geometry" />
        </mxCell>
        <mxCell id="IDVPyDn8LvfzWvbEVBhB-34" value="prénom_agent" style="text;align=left;verticalAlign=top;spacingLeft=4;spacingRight=4;overflow=hidden;rotatable=0;points=[[0,0.5],[1,0.5]];portConstraint=eastwest;" parent="IDVPyDn8LvfzWvbEVBhB-31" vertex="1">
          <mxGeometry y="78" width="160" height="26" as="geometry" />
        </mxCell>
        <mxCell id="IDVPyDn8LvfzWvbEVBhB-36" value="mdp_agent" style="text;align=left;verticalAlign=top;spacingLeft=4;spacingRight=4;overflow=hidden;rotatable=0;points=[[0,0.5],[1,0.5]];portConstraint=eastwest;" parent="IDVPyDn8LvfzWvbEVBhB-31" vertex="1">
          <mxGeometry y="104" width="160" height="26" as="geometry" />
        </mxCell>
        <mxCell id="YZ41dSeIXNGB9_Nw-FCX-0" value="Localisation" style="swimlane;fontStyle=0;align=center;verticalAlign=top;childLayout=stackLayout;horizontal=1;startSize=26;horizontalStack=0;resizeParent=1;resizeLast=0;collapsible=1;marginBottom=0;rounded=0;shadow=0;strokeWidth=1;" parent="WIyWlLk6GJQsqaUBKTNV-1" vertex="1">
          <mxGeometry x="960" y="362" width="160" height="196" as="geometry">
            <mxRectangle x="550" y="140" width="160" height="26" as="alternateBounds" />
          </mxGeometry>
        </mxCell>
        <mxCell id="YZ41dSeIXNGB9_Nw-FCX-1" value="id_localisation" style="text;align=left;verticalAlign=top;spacingLeft=4;spacingRight=4;overflow=hidden;rotatable=0;points=[[0,0.5],[1,0.5]];portConstraint=eastwest;" parent="YZ41dSeIXNGB9_Nw-FCX-0" vertex="1">
          <mxGeometry y="26" width="160" height="26" as="geometry" />
        </mxCell>
        <mxCell id="YZ41dSeIXNGB9_Nw-FCX-2" value="nom_rue" style="text;align=left;verticalAlign=top;spacingLeft=4;spacingRight=4;overflow=hidden;rotatable=0;points=[[0,0.5],[1,0.5]];portConstraint=eastwest;" parent="YZ41dSeIXNGB9_Nw-FCX-0" vertex="1">
          <mxGeometry y="52" width="160" height="26" as="geometry" />
        </mxCell>
        <mxCell id="YZ41dSeIXNGB9_Nw-FCX-3" value="numéro_maison_proche" style="text;align=left;verticalAlign=top;spacingLeft=4;spacingRight=4;overflow=hidden;rotatable=0;points=[[0,0.5],[1,0.5]];portConstraint=eastwest;rounded=0;shadow=0;html=0;" parent="YZ41dSeIXNGB9_Nw-FCX-0" vertex="1">
          <mxGeometry y="78" width="160" height="26" as="geometry" />
        </mxCell>
        <mxCell id="YZ41dSeIXNGB9_Nw-FCX-4" value="intervalle_numéro" style="text;align=left;verticalAlign=top;spacingLeft=4;spacingRight=4;overflow=hidden;rotatable=0;points=[[0,0.5],[1,0.5]];portConstraint=eastwest;rounded=0;shadow=0;html=0;" parent="YZ41dSeIXNGB9_Nw-FCX-0" vertex="1">
          <mxGeometry y="104" width="160" height="26" as="geometry" />
        </mxCell>
        <mxCell id="vcI3NXsceXAcZQmZiB-R-0" value="" style="endArrow=none;html=1;rounded=0;" parent="WIyWlLk6GJQsqaUBKTNV-1" source="YZ41dSeIXNGB9_Nw-FCX-0" target="IDVPyDn8LvfzWvbEVBhB-20" edge="1">
          <mxGeometry width="50" height="50" relative="1" as="geometry">
            <mxPoint x="1130" y="196.26666666666665" as="sourcePoint" />
            <mxPoint x="1270" y="196.73333333333312" as="targetPoint" />
          </mxGeometry>
        </mxCell>
        <mxCell id="vcI3NXsceXAcZQmZiB-R-1" value="1" style="edgeLabel;html=1;align=center;verticalAlign=middle;resizable=0;points=[];" parent="vcI3NXsceXAcZQmZiB-R-0" vertex="1" connectable="0">
          <mxGeometry x="0.7612" y="1" relative="1" as="geometry">
            <mxPoint x="-101" y="-7" as="offset" />
          </mxGeometry>
        </mxCell>
        <mxCell id="vcI3NXsceXAcZQmZiB-R-2" value="0..*" style="edgeLabel;html=1;align=center;verticalAlign=middle;resizable=0;points=[];" parent="vcI3NXsceXAcZQmZiB-R-0" vertex="1" connectable="0">
          <mxGeometry x="0.8633" relative="1" as="geometry">
            <mxPoint x="-2" y="-8" as="offset" />
          </mxGeometry>
        </mxCell>
        <mxCell id="vcI3NXsceXAcZQmZiB-R-3" value="situé à" style="edgeLabel;html=1;align=center;verticalAlign=middle;resizable=0;points=[];" parent="vcI3NXsceXAcZQmZiB-R-0" vertex="1" connectable="0">
          <mxGeometry x="0.1184" relative="1" as="geometry">
            <mxPoint x="-8" y="-8" as="offset" />
          </mxGeometry>
        </mxCell>
        <mxCell id="vcI3NXsceXAcZQmZiB-R-4" value="" style="endArrow=none;html=1;rounded=0;" parent="WIyWlLk6GJQsqaUBKTNV-1" source="YZ41dSeIXNGB9_Nw-FCX-0" target="IDVPyDn8LvfzWvbEVBhB-1" edge="1">
          <mxGeometry width="50" height="50" relative="1" as="geometry">
            <mxPoint x="1130" y="456" as="sourcePoint" />
            <mxPoint x="1250" y="456" as="targetPoint" />
          </mxGeometry>
        </mxCell>
        <mxCell id="vcI3NXsceXAcZQmZiB-R-5" value="1" style="edgeLabel;html=1;align=center;verticalAlign=middle;resizable=0;points=[];" parent="vcI3NXsceXAcZQmZiB-R-4" vertex="1" connectable="0">
          <mxGeometry x="0.7612" y="1" relative="1" as="geometry">
            <mxPoint x="7" y="65" as="offset" />
          </mxGeometry>
        </mxCell>
        <mxCell id="vcI3NXsceXAcZQmZiB-R-6" value="0..*" style="edgeLabel;html=1;align=center;verticalAlign=middle;resizable=0;points=[];" parent="vcI3NXsceXAcZQmZiB-R-4" vertex="1" connectable="0">
          <mxGeometry x="0.8633" relative="1" as="geometry">
            <mxPoint x="11" y="3" as="offset" />
          </mxGeometry>
        </mxCell>
        <mxCell id="vcI3NXsceXAcZQmZiB-R-7" value="situé à" style="edgeLabel;html=1;align=center;verticalAlign=middle;resizable=0;points=[];" parent="vcI3NXsceXAcZQmZiB-R-4" vertex="1" connectable="0">
          <mxGeometry x="0.1184" relative="1" as="geometry">
            <mxPoint x="-24" y="3" as="offset" />
          </mxGeometry>
        </mxCell>
      </root>
    </mxGraphModel>
  </diagram>
</mxfile>
